<svg id="sign-out-alt_2_" data-name="sign-out-alt (2)" xmlns="http://www.w3.org/2000/svg" width="10.827" height="10.944" viewBox="0 0 10.827 10.944">
  <path id="Path_1880" data-name="Path 1880" d="M5.233,6.84a.456.456,0,0,0-.456.456V8.664a1.368,1.368,0,0,1-1.368,1.368H2.28A1.368,1.368,0,0,1,.912,8.664V2.28A1.368,1.368,0,0,1,2.28.912H3.409A1.368,1.368,0,0,1,4.777,2.28V3.648a.456.456,0,0,0,.912,0V2.28A2.283,2.283,0,0,0,3.409,0H2.28A2.283,2.283,0,0,0,0,2.28V8.664a2.283,2.283,0,0,0,2.28,2.28H3.409a2.283,2.283,0,0,0,2.28-2.28V7.3A.456.456,0,0,0,5.233,6.84Z" fill="#fff"/>
  <path id="Path_1881" data-name="Path 1881" d="M13.147,7.225,11.056,5.134a.456.456,0,1,0-.645.645l1.943,1.944-6.9.014a.456.456,0,0,0,0,.912h0l6.926-.014L10.41,10.605a.456.456,0,1,0,.645.645l2.091-2.091a1.368,1.368,0,0,0,0-1.934Z" transform="translate(-2.72 -2.72)" fill="#fff"/>
</svg>
