<svg xmlns="http://www.w3.org/2000/svg" width="48.157" height="48.157" viewBox="0 0 48.157 48.157">
  <g id="decentralized" transform="translate(0 0.003)">
    <path id="Path_14619" data-name="Path 14619" d="M55.659,60.687a5.031,5.031,0,1,0-5.031-5.031A5.031,5.031,0,0,0,55.659,60.687Zm0-8.745a3.714,3.714,0,1,1-3.714,3.715A3.714,3.714,0,0,1,55.659,51.942Z" transform="translate(-31.58 -31.58)" fill="#03b664"/>
    <path id="Path_14620" data-name="Path 14620" d="M57.488,7.852a3.927,3.927,0,1,0-3.927-3.927,3.927,3.927,0,0,0,3.927,3.927Zm0-6.537a2.611,2.611,0,1,1-2.611,2.611,2.611,2.611,0,0,1,2.611-2.611Z" transform="translate(-33.41 0)" fill="#03b664"/>
    <path id="Path_14621" data-name="Path 14621" d="M57.488,107.119a3.927,3.927,0,1,0,3.927,3.927,3.927,3.927,0,0,0-3.927-3.927Zm0,6.539a2.611,2.611,0,1,1,2.611-2.611A2.611,2.611,0,0,1,57.488,113.658Z" transform="translate(-33.41 -66.82)" fill="#03b664"/>
    <path id="Path_14622" data-name="Path 14622" d="M95.363,23.545A3.924,3.924,0,1,0,92.585,22.4,3.924,3.924,0,0,0,95.363,23.545Zm-1.846-5.772a2.611,2.611,0,1,1-.764,1.846,2.611,2.611,0,0,1,.764-1.846Z" transform="translate(-57.035 -9.793)" fill="#03b664"/>
    <path id="Path_14623" data-name="Path 14623" d="M19.616,91.432a3.927,3.927,0,1,0,2.777,1.15A3.927,3.927,0,0,0,19.616,91.432Zm1.846,5.773a2.611,2.611,0,1,1,.764-1.846A2.611,2.611,0,0,1,21.463,97.205Z" transform="translate(-9.787 -57.035)" fill="#03b664"/>
    <path id="Path_14624" data-name="Path 14624" d="M111.049,53.558a3.927,3.927,0,1,0,3.927,3.928A3.927,3.927,0,0,0,111.049,53.558Zm0,6.538a2.611,2.611,0,1,1,2.611-2.61A2.611,2.611,0,0,1,111.049,60.1Z" transform="translate(-66.82 -33.41)" fill="#03b664"/>
    <path id="Path_14625" data-name="Path 14625" d="M7.855,57.487a3.927,3.927,0,1,0-3.927,3.926,3.927,3.927,0,0,0,3.927-3.926ZM3.927,60.1a2.611,2.611,0,1,1,2.611-2.61A2.611,2.611,0,0,1,3.927,60.1Z" transform="translate(0 -33.41)" fill="#03b664"/>
    <path id="Path_14626" data-name="Path 14626" d="M92.585,92.563A3.9,3.9,0,1,0,95.362,91.4a3.927,3.927,0,0,0-2.777,1.162Zm4.623,4.623a2.611,2.611,0,1,1,.764-1.846,2.611,2.611,0,0,1-.764,1.846Z" transform="translate(-57.034 -57.016)" fill="#03b664"/>
    <path id="Path_14627" data-name="Path 14627" d="M19.615,23.538a3.928,3.928,0,1,0-2.777-1.151A3.928,3.928,0,0,0,19.615,23.538Zm-1.846-5.774A2.6,2.6,0,1,1,17,19.61,2.611,2.611,0,0,1,17.769,17.764Z" transform="translate(-9.785 -9.784)" fill="#03b664"/>
    <path id="Path_14628" data-name="Path 14628" d="M51.2,43.577a.658.658,0,0,0,.931,0l2.416-2.416a.658.658,0,0,0,0-.931l-2.416-2.416a.658.658,0,1,0-.931.931l1.3,1.3H48.7A8,8,0,0,0,46.814,35.5l2.681-2.681v1.819a.658.658,0,0,0,1.317,0V31.223a.658.658,0,0,0-.658-.658H46.738a.658.658,0,1,0,0,1.317h1.836L45.885,34.57a7.993,7.993,0,0,0-4.538-1.881V28.894l1.286,1.286a.658.658,0,0,0,.931-.931l-2.416-2.416a.659.659,0,0,0-.931,0L37.8,29.25a.658.658,0,1,0,.931.931l1.3-1.3v3.805a8,8,0,0,0-4.544,1.888l-2.695-2.695h1.836a.658.658,0,1,0,0-1.317H31.21a.659.659,0,0,0-.658.658v3.417a.658.658,0,0,0,1.317,0V32.82l2.687,2.687a8,8,0,0,0-1.874,4.535H28.87l1.3-1.3a.658.658,0,1,0-.931-.931L26.821,40.23a.658.658,0,0,0,0,.931l2.416,2.416a.658.658,0,1,0,.931-.931L28.882,41.36h3.8a8,8,0,0,0,1.881,4.532l-2.695,2.695V46.751a.658.658,0,0,0-1.317,0v3.417a.659.659,0,0,0,.658.658h3.417a.658.658,0,1,0,0-1.317H32.808l2.687-2.687A8,8,0,0,0,40.03,48.7v3.8l-1.3-1.3a.658.658,0,0,0-.931.931l2.416,2.416a.658.658,0,0,0,.931,0l2.416-2.416a.658.658,0,1,0-.931-.931L41.347,52.5V48.7a7.994,7.994,0,0,0,4.529-1.874l2.681,2.681H46.738a.658.658,0,0,0,0,1.317h3.417a.658.658,0,0,0,.658-.658V46.751a.658.658,0,0,0-1.317,0v1.836L46.808,45.9A8,8,0,0,0,48.7,41.36h3.788L51.2,42.646a.658.658,0,0,0,0,.931ZM40.688,33.971a6.7,6.7,0,0,1,4.748,1.968l0,.006,0,0a6.7,6.7,0,0,1,1.965,4.71c0,.014,0,.027,0,.041s0,.024,0,.038a6.7,6.7,0,0,1-1.971,4.712l-.006,0v0a6.722,6.722,0,1,1-4.745-11.484Z" transform="translate(-16.61 -16.62)" fill="#03b664"/>
  </g>
</svg>
