<svg xmlns="http://www.w3.org/2000/svg" width="46.315" height="46.316" viewBox="0 0 46.315 46.316">
  <g id="trust_1_" data-name="trust (1)" transform="translate(-0.999 -1)">
    <path id="Path_14629" data-name="Path 14629" d="M8.563,21.358,1.093,34.831a.747.747,0,0,0,.32,1.031L5.895,38.1a.747.747,0,0,0,.987-.3l.2-.353A28.256,28.256,0,0,0,8.43,40.771a2.636,2.636,0,0,0,2.154,4.165h.087c.014,0,.027,0,.041,0v.4a2.6,2.6,0,0,0,2.6,2.6h.273a2.574,2.574,0,0,0,.374-.041,2.544,2.544,0,0,0,3,2.241,2.338,2.338,0,0,0,.093.456l.037.108a2.479,2.479,0,0,0,2.258,1.664l.565.017H20a2.965,2.965,0,0,0,2.349-1.152l.224.08a7.6,7.6,0,0,0,7.918-1.749c.043,0,.087.009.13.009a4.831,4.831,0,0,0,3.87-1.971l.716-1.075a3.934,3.934,0,0,0,2.3-1.95l.523-.78a3,3,0,0,0,1.431-1.23,3.042,3.042,0,0,0,.075-2.964l1.838-1.868.071.121a.747.747,0,0,0,.982.288L46.9,35.858a.747.747,0,0,0,.306-1.046l-7.47-12.7a.747.747,0,0,0-.982-.288l-4.482,2.269a.747.747,0,0,0-.306,1.046l.654,1.112a8.258,8.258,0,0,1-4.279-.075,9.844,9.844,0,0,0-4.9-.126L18.863,27.57a8.591,8.591,0,0,1-4.4-2.355l-.383-.383.27-.485a.747.747,0,0,0-.315-1.029L9.554,21.049a.747.747,0,0,0-.991.309Zm2.021,22.082a1.151,1.151,0,0,1-.92-1.841l1.075-1.433a1.154,1.154,0,0,1,.921-.461h.14a1.152,1.152,0,0,1,1.15,1.15v.307a1.162,1.162,0,0,1-.337.813L11.486,43.1a1.143,1.143,0,0,1-.813.337Zm2.722,2.988a1.1,1.1,0,0,1-1.1-1.1v-.374a1.109,1.109,0,0,1,.323-.779l.016-.013,1.127-1.131c.008-.007.013-.017.022-.025l1.486-1.486a1.094,1.094,0,0,1,.778-.322H16.1A1.1,1.1,0,0,1,16.946,43l-2.415,2.9-.1.123a1.1,1.1,0,0,1-.846.4Zm3.219,2.241a1.1,1.1,0,0,1-.848-1.806l2.418-2.9.1-.123a1.121,1.121,0,0,1,.889-.4,1.1,1.1,0,0,1,.847,1.806l-2.521,3.025A1.121,1.121,0,0,1,16.526,48.668Zm3.424,2.2-.565-.017a.977.977,0,0,1-.891-.657l-.037-.108a.977.977,0,0,1,.173-.94L21.084,46.2l.141-.169a.971.971,0,0,1,.747-.35h.467a.971.971,0,0,1,.81,1.513l-2.009,3.013A1.494,1.494,0,0,1,19.949,50.873Zm18.86-27.394,6.713,11.408-3.146,1.593L35.661,25.071ZM25.781,27.512a8.338,8.338,0,0,1,4.155.107,9.732,9.732,0,0,0,5.476-.029l5.175,8.8L38.547,38.46a72.282,72.282,0,0,0-10.413-6.887l.592-.1L28.49,30l-2.241.361a29.72,29.72,0,0,1-4.345.377.747.747,0,0,0-.715.565l-.182.725a2.241,2.241,0,0,1-2.174,1.7H17.018l1.718-4.592ZM13.408,26.276a10.069,10.069,0,0,0,3.9,2.42L15.24,34.214a.747.747,0,0,0,.7,1.008h2.9a3.731,3.731,0,0,0,3.624-2.829l.043-.172a31.291,31.291,0,0,0,3.137-.274,70.784,70.784,0,0,1,12.176,7.836,1.545,1.545,0,0,1-1.794,2.509L29.79,38.327l-.8,1.261,6.231,3.964a3.038,3.038,0,0,0,.917.385,2.465,2.465,0,0,1-3.347.981L27.5,42.036l-.716,1.312,5.287,2.883a3.978,3.978,0,0,0,1.245.426l-.046.069a3.3,3.3,0,0,1-4.415.822l-2.809-1.755-.793,1.27,2.809,1.755a4.989,4.989,0,0,0,.587.312,6.125,6.125,0,0,1-5.433.8l1.27-1.906a2.465,2.465,0,0,0-2.053-3.837h-.462a2.428,2.428,0,0,0-.314.034,2.677,2.677,0,0,0-.109-.5,2.607,2.607,0,0,0-2.505-1.775,2.576,2.576,0,0,0-.374.041,2.689,2.689,0,0,0-.11-.507A2.594,2.594,0,0,0,16.1,39.7h-.143a2.564,2.564,0,0,0-1.586.556A2.646,2.646,0,0,0,11.8,38.21h-.14a2.659,2.659,0,0,0-2.116,1.058l-.105.14a26.724,26.724,0,0,1-1.283-3.527l-.075-.248L13.325,26.2ZM5.923,36.446,2.778,34.874,9.522,22.71,12.669,24.3Z" transform="translate(0 -5.052)" fill="#03b664"/>
    <path id="Path_14630" data-name="Path 14630" d="M20.505,12.429l7.47,6.321a.747.747,0,0,0,.965,0l7.47-6.321a7.059,7.059,0,0,0,2.505-5.4A6.029,6.029,0,0,0,28.624,2.766l-.166.166-.166-.166A6.029,6.029,0,0,0,18,7.029a7.059,7.059,0,0,0,2.505,5.4Zm3.524-9.935a4.5,4.5,0,0,1,3.207,1.328l.694.694a.747.747,0,0,0,1.056,0l.694-.694a4.535,4.535,0,0,1,7.742,3.207,5.57,5.57,0,0,1-1.977,4.258L28.458,17.2,21.471,11.29a5.57,5.57,0,0,1-1.977-4.261,4.541,4.541,0,0,1,4.535-4.535Z" transform="translate(-4.301)" fill="#03b664"/>
  </g>
</svg>
